<mxfile host="app.diagrams.net" agent="Mozilla/5.0 (Macintosh; Intel Mac OS X 10_15_7) AppleWebKit/537.36 (KHTML, like Gecko) Chrome/136.0.0.0 Safari/537.36" version="27.0.3">
  <diagram name="Page-1" id="oqj9hIbltG6vLU7jDVF0">
    <mxGraphModel grid="1" page="1" gridSize="10" guides="1" tooltips="1" connect="1" arrows="1" fold="1" pageScale="1" pageWidth="827" pageHeight="1169" math="0" shadow="0">
      <root>
        <mxCell id="0" />
        <mxCell id="1" parent="0" />
        <mxCell id="qeMFAvwEG7jKWk_yzprf-1" value="&lt;font style=&quot;font-size: 36px;&quot;&gt;(Clinical) Business Plane&lt;/font&gt;" style="rounded=1;whiteSpace=wrap;html=1;fillColor=#dae8fc;strokeColor=#6c8ebf;" vertex="1" parent="1">
          <mxGeometry x="160" y="-30" width="600" height="60" as="geometry" />
        </mxCell>
        <mxCell id="qeMFAvwEG7jKWk_yzprf-2" value="&lt;font style=&quot;font-size: 36px;&quot;&gt;Operational Data Plane&lt;/font&gt;" style="rounded=1;whiteSpace=wrap;html=1;fillColor=#dae8fc;strokeColor=#6c8ebf;" vertex="1" parent="1">
          <mxGeometry x="160" y="330" width="600" height="60" as="geometry" />
        </mxCell>
        <mxCell id="qeMFAvwEG7jKWk_yzprf-3" value="&lt;font style=&quot;font-size: 36px;&quot;&gt;Analytics Data Plane&lt;/font&gt;" style="rounded=1;whiteSpace=wrap;html=1;fillColor=#dae8fc;strokeColor=#6c8ebf;" vertex="1" parent="1">
          <mxGeometry x="160" y="680" width="600" height="60" as="geometry" />
        </mxCell>
        <mxCell id="qeMFAvwEG7jKWk_yzprf-4" value="&lt;font style=&quot;font-size: 24px;&quot;&gt;Business Analysis&lt;/font&gt;" style="rounded=1;whiteSpace=wrap;html=1;fillColor=#ffe6cc;strokeColor=#d79b00;" vertex="1" parent="1">
          <mxGeometry x="310" y="40" width="300" height="60" as="geometry" />
        </mxCell>
        <mxCell id="qeMFAvwEG7jKWk_yzprf-5" value="&lt;span style=&quot;font-size: 24px;&quot;&gt;ISO 13606-2&lt;/span&gt;&lt;div&gt;&lt;span style=&quot;font-size: 24px;&quot;&gt;Archetype&lt;/span&gt;&lt;/div&gt;" style="rounded=1;whiteSpace=wrap;html=1;fillColor=#d5e8d4;strokeColor=#82b366;" vertex="1" parent="1">
          <mxGeometry x="370" y="160" width="180" height="60" as="geometry" />
        </mxCell>
        <mxCell id="qeMFAvwEG7jKWk_yzprf-6" value="&lt;font style=&quot;font-size: 24px;&quot;&gt;ISO 13972&amp;nbsp;Clinical information models&lt;/font&gt;" style="rounded=1;whiteSpace=wrap;html=1;fillColor=#d5e8d4;strokeColor=#82b366;" vertex="1" parent="1">
          <mxGeometry x="160" y="400" width="600" height="60" as="geometry" />
        </mxCell>
        <mxCell id="qeMFAvwEG7jKWk_yzprf-7" value="&lt;font style=&quot;font-size: 24px;&quot;&gt;ISO 13606-1 EHR Communication&lt;/font&gt;" style="rounded=1;whiteSpace=wrap;html=1;fillColor=#d5e8d4;strokeColor=#82b366;" vertex="1" parent="1">
          <mxGeometry x="310" y="520" width="300" height="60" as="geometry" />
        </mxCell>
        <mxCell id="qeMFAvwEG7jKWk_yzprf-8" value="&lt;font style=&quot;font-size: 24px;&quot;&gt;API and Datalakes&lt;/font&gt;" style="rounded=1;whiteSpace=wrap;html=1;fillColor=#f8cecc;strokeColor=#b85450;" vertex="1" parent="1">
          <mxGeometry x="160" y="460" width="300" height="60" as="geometry" />
        </mxCell>
        <mxCell id="qeMFAvwEG7jKWk_yzprf-9" value="&lt;font style=&quot;font-size: 24px;&quot;&gt;Asynchronous I/O /&amp;nbsp;&lt;br&gt;Domain Events&lt;/font&gt;" style="rounded=1;whiteSpace=wrap;html=1;fillColor=#f8cecc;strokeColor=#b85450;" vertex="1" parent="1">
          <mxGeometry x="460" y="460" width="300" height="60" as="geometry" />
        </mxCell>
        <mxCell id="qeMFAvwEG7jKWk_yzprf-10" value="&lt;font style=&quot;font-size: 24px;&quot;&gt;Clinical Document Architecture&lt;/font&gt;" style="rounded=1;whiteSpace=wrap;html=1;fillColor=#f8cecc;strokeColor=#b85450;" vertex="1" parent="1">
          <mxGeometry x="310" y="580" width="300" height="60" as="geometry" />
        </mxCell>
        <mxCell id="qeMFAvwEG7jKWk_yzprf-11" value="&lt;font style=&quot;font-size: 24px;&quot;&gt;(Domain) Archetype&lt;/font&gt;" style="rounded=1;whiteSpace=wrap;html=1;fillColor=#f8cecc;strokeColor=#b85450;" vertex="1" parent="1">
          <mxGeometry x="160" y="220" width="600" height="60" as="geometry" />
        </mxCell>
        <mxCell id="qeMFAvwEG7jKWk_yzprf-12" value="&lt;font style=&quot;font-size: 24px;&quot;&gt;Common Data Model (OMOP)?&lt;/font&gt;" style="rounded=1;whiteSpace=wrap;html=1;fillColor=#d5e8d4;strokeColor=#82b366;" vertex="1" parent="1">
          <mxGeometry x="160" y="750" width="600" height="60" as="geometry" />
        </mxCell>
        <mxCell id="qeMFAvwEG7jKWk_yzprf-13" value="&lt;font style=&quot;font-size: 24px;&quot;&gt;Data Warehouse&lt;/font&gt;" style="rounded=1;whiteSpace=wrap;html=1;fillColor=#f8cecc;strokeColor=#b85450;" vertex="1" parent="1">
          <mxGeometry x="160" y="810" width="600" height="60" as="geometry" />
        </mxCell>
        <mxCell id="qeMFAvwEG7jKWk_yzprf-14" value="&lt;font style=&quot;font-size: 24px;&quot;&gt;Enterprise Architecture&lt;/font&gt;" style="rounded=1;whiteSpace=wrap;html=1;fillColor=#ffe6cc;strokeColor=#d79b00;" vertex="1" parent="1">
          <mxGeometry x="310" y="100" width="300" height="60" as="geometry" />
        </mxCell>
        <mxCell id="qeMFAvwEG7jKWk_yzprf-15" value="&lt;span style=&quot;font-size: 24px;&quot;&gt;Business Process Modelling&lt;/span&gt;" style="rounded=1;whiteSpace=wrap;html=1;fillColor=#d5e8d4;strokeColor=#82b366;" vertex="1" parent="1">
          <mxGeometry x="160" y="160" width="210" height="60" as="geometry" />
        </mxCell>
        <mxCell id="qeMFAvwEG7jKWk_yzprf-16" value="&lt;span style=&quot;font-size: 24px;&quot;&gt;Federated Data Governance&lt;/span&gt;" style="rounded=1;whiteSpace=wrap;html=1;fillColor=#f8cecc;strokeColor=#b85450;" vertex="1" parent="1">
          <mxGeometry x="550" y="160" width="210" height="60" as="geometry" />
        </mxCell>
      </root>
    </mxGraphModel>
  </diagram>
</mxfile>
